# xmcd
#
# Track frame offsets: 
#        150
#        2332
#        20977
#        41087
#        63025
#        83282
#        104470
#        119477
#        138682
#        158122
#        179297
#        202140
#        219025
#        244730
#        261180
#        279770
#
# Disc length: 3985 seconds
#
# Revision: 1
# Processed by: cddbd v1.5.2PL0 Copyright (c) Steve Scherf et al.
# Submitted via: ExactAudioCopy v0.99pb3
#
DISCID=d60f8f10
DTITLE=Beverley Knight - Prodigal Sista (1999)
DYEAR=1999
DGENRE=R&B/Soul
TTITLE0=Intro (Good Morning World)
TTITLE1=Made It Back (featuring Redman)
TTITLE2=Rewind (Find A Way)
TTITLE3=Damn
TTITLE4=A.W.O.L.
TTITLE5=Sista, Sista
TTITLE6=Strong Hand
TTITLE7=Greatest Day
TTITLE8=That's Alright
TTITLE9=Tomorrow
TTITLE10=Send Me, Move Me, Love Me
TTITLE11=The Need Of You
TTITLE12=Good Morning World
TTITLE13=Made It Back 99 (Good Times mix) (featuring Redman)
TTITLE14=A.W.O.L. (Jus Bounce mix)
TTITLE15=Greatest Day (Classic mix)
EXTD=
EXTT0=
EXTT1=
EXTT2=
EXTT3=
EXTT4=
EXTT5=
EXTT6=
EXTT7=
EXTT8=
EXTT9=
EXTT10=
EXTT11=
EXTT12=
EXTT13=
EXTT14=
EXTT15=
PLAYORDER=
